<?xml version="1.0" encoding="utf-8"?>
<!-- Generator: Adobe Illustrator 24.1.0, SVG Export Plug-In . SVG Version: 6.00 Build 0)  -->
<svg version="1.1" id="Layer_1" xmlns="http://www.w3.org/2000/svg" xmlns:xlink="http://www.w3.org/1999/xlink" x="0px" y="0px"
	 viewBox="0 0 282 61" style="enable-background:new 0 0 282 61;" xml:space="preserve">
<style type="text/css">
	.st0{enable-background:new    ;}
	.st1{fill:#0D0D0D;}
	.st2{fill:none;}
</style>
<g transform="translate(234 3.856)">
	<path d="M11,8.9V6.2c0-0.4-0.3-0.7-0.7-0.7l0,0H0.7C0.3,5.5,0,5.8,0,6.2l0,0v2.7H11z"/>
	<path d="M0,10.3v22.6h11V10.3H0z M8.2,19.2H2.7c-0.4,0-0.7-0.3-0.7-0.7l0,0V13c0-0.4,0.3-0.7,0.7-0.7h5.5c0.4,0,0.7,0.3,0.7,0.7
		v5.5C8.9,18.9,8.6,19.2,8.2,19.2L8.2,19.2L8.2,19.2z"/>
	<path d="M0,37v3.4c0,0.4,0.3,0.7,0.7,0.7l0,0h9.6c0.4,0,0.7-0.3,0.7-0.7l0,0V37H0z"/>
	<path d="M0,34.3h11v1.4H0V34.3z"/>
	<path d="M12.3,34.3h8.9v1.4h-8.9C12.3,35.7,12.3,34.3,12.3,34.3z"/>
	<path d="M21.3,2.7v-2C21.3,0.3,21,0,20.6,0l0,0H13c-0.4,0-0.7,0.3-0.7,0.7l0,0v2.1L21.3,2.7L21.3,2.7z"/>
	<path d="M12.3,7.5h8.9v25.4h-8.9C12.3,32.9,12.3,7.5,12.3,7.5z"/>
	<path d="M12.3,37v3.4c0,0.4,0.3,0.7,0.7,0.7l0,0h7.5c0.4,0,0.7-0.3,0.7-0.7l0,0V37H12.3z"/>
	<path d="M12.3,4.1h8.9v2.1h-8.9C12.3,6.2,12.3,4.1,12.3,4.1z"/>
	<path d="M22.6,14.2l0.4,1.4l11.6-3.1l-0.4-1.4L22.6,14.2z"/>
	<path d="M28.3,36.2L40,33.1l-0.7-2.8l-11.6,3.1L28.3,36.2z"/>
	<path d="M38.9,28.9L35,13.8l-11.6,3.1L27.3,32L38.9,28.9z"/>
	<path d="M22.3,12.9l11.6-3.1l-1-3.8c-0.1-0.4-0.5-0.6-0.8-0.5L21.8,8.2c-0.4,0.1-0.6,0.5-0.5,0.8L22.3,12.9z"/>
	<path d="M40.3,34.4l-11.6,3.1l0.8,3.1c0,0.2,0.2,0.3,0.3,0.4c0.1,0.1,0.2,0.1,0.3,0.1c0.1,0,0.1,0,0.2,0l10.3-2.7
		c0.4-0.1,0.6-0.5,0.5-0.8L40.3,34.4z"/>
</g>
<g class="st0">
	<path class="st1" d="M34.8,31.4c1,1.3,1.5,3,1.5,4.9c0,2.7-1,4.8-2.9,6.3c-2,1.6-4.7,2.3-8.1,2.3H10.1V13.3h14.6
		c3.3,0,5.9,0.7,7.9,2.2s2.9,3.5,2.9,6c0,1.7-0.4,3.1-1.3,4.3c-0.9,1.2-2.1,2.2-3.7,2.7C32.4,29.1,33.8,30.1,34.8,31.4z M17,26.2
		h6.6c1.8,0,3.1-0.3,4-0.9c0.9-0.6,1.3-1.6,1.3-2.8c0-1.3-0.4-2.3-1.3-2.9s-2.2-0.9-4-0.9H17V26.2z M28.5,38.7
		c0.8-0.6,1.3-1.6,1.3-3.1c0-1.4-0.4-2.4-1.3-3.1s-2.2-1-4-1H17v8.1h7.4C26.3,39.6,27.6,39.3,28.5,38.7z"/>
	<path class="st1" d="M45.1,43.9c-1.8-0.9-3.1-2.3-4.1-4c-1-1.7-1.4-3.8-1.4-6.1s0.5-4.4,1.4-6.1c1-1.7,2.3-3.1,4.1-4
		c1.8-0.9,3.8-1.4,6.2-1.4s4.4,0.5,6.2,1.4c1.8,0.9,3.1,2.3,4.1,4c1,1.7,1.4,3.8,1.4,6.1s-0.5,4.4-1.4,6.1c-1,1.7-2.3,3.1-4.1,4
		c-1.8,0.9-3.8,1.4-6.2,1.4S46.8,44.9,45.1,43.9z M56.2,33.8c0-2.1-0.4-3.7-1.3-4.8s-2.1-1.6-3.7-1.6c-3.3,0-5,2.1-5,6.3
		c0,4.2,1.6,6.3,5,6.3C54.5,40.2,56.2,38.1,56.2,33.8z"/>
	<path class="st1" d="M71.5,43.9c-1.8-0.9-3.1-2.3-4.1-4c-1-1.7-1.4-3.8-1.4-6.1s0.5-4.4,1.4-6.1c1-1.7,2.3-3.1,4.1-4
		c1.8-0.9,3.8-1.4,6.2-1.4s4.4,0.5,6.2,1.4c1.8,0.9,3.1,2.3,4.1,4c1,1.7,1.4,3.8,1.4,6.1s-0.5,4.4-1.4,6.1c-1,1.7-2.3,3.1-4.1,4
		c-1.8,0.9-3.8,1.4-6.2,1.4S73.3,44.9,71.5,43.9z M82.6,33.8c0-2.1-0.4-3.7-1.3-4.8s-2.1-1.6-3.7-1.6c-3.3,0-5,2.1-5,6.3
		c0,4.2,1.6,6.3,5,6.3C81,40.2,82.6,38.1,82.6,33.8z"/>
	<path class="st1" d="M108.8,45l-8.5-9.9V45h-6.8V13.3h6.8v19.1l8.1-9.4h8.1l-9.3,10.5l9.8,11.5H108.8z"/>
	<path class="st1" d="M121.3,44.7c-1.7-0.5-3.2-1.1-4.4-2l1.8-4.7c1.2,0.8,2.5,1.4,4,1.9c1.4,0.5,2.9,0.7,4.4,0.7
		c1,0,1.9-0.2,2.5-0.5c0.6-0.3,0.9-0.8,0.9-1.4c0-0.5-0.2-1-0.6-1.3c-0.4-0.3-1.2-0.6-2.3-0.8l-3.6-0.8c-2.1-0.5-3.7-1.2-4.7-2.2
		c-1-1-1.5-2.4-1.5-4.1c0-1.4,0.4-2.6,1.2-3.6c0.8-1,1.9-1.9,3.4-2.5c1.5-0.6,3.1-0.9,5-0.9c1.6,0,3.1,0.2,4.6,0.7
		c1.5,0.5,2.8,1.2,4.1,2l-1.8,4.5c-2.3-1.6-4.7-2.4-6.9-2.4c-1.1,0-1.9,0.2-2.5,0.5c-0.6,0.4-0.9,0.9-0.9,1.5c0,0.5,0.2,0.9,0.5,1.1
		c0.4,0.3,1,0.5,1.9,0.8L130,32c2.2,0.5,3.9,1.3,4.9,2.3s1.6,2.4,1.6,4.2c0,2.1-0.8,3.8-2.5,5c-1.7,1.2-4,1.8-7,1.8
		C124.9,45.4,123,45.1,121.3,44.7z"/>
	<path class="st1" d="M154.5,40.2l-0.4,4.9c-0.9,0.1-1.7,0.2-2.6,0.2c-3.4,0-5.8-0.7-7.4-2.2c-1.5-1.5-2.3-3.7-2.3-6.7V28h-4.2v-5.1
		h4.2v-6.5h6.8v6.5h5.5V28h-5.5v8.4c0,2.6,1.2,4,3.7,4C153,40.4,153.8,40.3,154.5,40.2z"/>
	<path class="st1" d="M162,43.9c-1.8-0.9-3.1-2.3-4.1-4c-1-1.7-1.4-3.8-1.4-6.1s0.5-4.4,1.4-6.1c1-1.7,2.3-3.1,4.1-4
		c1.8-0.9,3.8-1.4,6.2-1.4s4.4,0.5,6.2,1.4c1.8,0.9,3.1,2.3,4.1,4c1,1.7,1.4,3.8,1.4,6.1s-0.5,4.4-1.4,6.1c-1,1.7-2.3,3.1-4.1,4
		c-1.8,0.9-3.8,1.4-6.2,1.4S163.8,44.9,162,43.9z M173.1,33.8c0-2.1-0.4-3.7-1.3-4.8s-2.1-1.6-3.7-1.6c-3.3,0-4.9,2.1-4.9,6.3
		c0,4.2,1.6,6.3,4.9,6.3C171.4,40.2,173.1,38.1,173.1,33.8z"/>
	<path class="st1" d="M199.8,27.9l-3.8,0.4c-1.9,0.2-3.2,0.7-4,1.6c-0.8,0.9-1.2,2.1-1.2,3.5V45H184V22.9h6.5v3.7
		c1.1-2.5,3.4-3.9,6.9-4.2l2-0.1L199.8,27.9z"/>
	<path class="st1" d="M221.5,35.2h-14.4c0.2,1.8,0.8,3.1,1.7,3.8c0.9,0.8,2.3,1.2,4,1.2c1.1,0,2.3-0.2,3.4-0.6s2.2-0.9,3.1-1.6
		l1.8,4.5c-1.1,0.8-2.4,1.5-3.9,2s-3.1,0.7-4.7,0.7c-3.7,0-6.7-1-8.8-3.1c-2.1-2.1-3.2-4.9-3.2-8.4c0-2.2,0.5-4.2,1.4-6
		s2.2-3.1,3.9-4.1c1.6-1,3.5-1.5,5.6-1.5c3.1,0,5.5,1,7.4,3c1.8,2,2.7,4.7,2.7,8.2V35.2z M208.5,28.3c-0.8,0.8-1.2,2-1.4,3.6h8.7
		c-0.1-1.6-0.5-2.8-1.2-3.6c-0.7-0.8-1.7-1.2-3-1.2C210.3,27,209.3,27.5,208.5,28.3z"/>
</g>
<path class="st2" d="M1.5,57h279c0.8,0,1.5,0.7,1.5,1.5l0,0c0,0.8-0.7,1.5-1.5,1.5H1.5C0.7,60,0,59.3,0,58.5l0,0
	C0,57.7,0.7,57,1.5,57z"/>
</svg>
